  0
SECTION
  2
HEADER
  9
$ACADVER
  1
AC1014
  9
$HANDSEED
  5
FFFF
  9
$MEASUREMENT
 70
     1
  0
ENDSEC
  0
SECTION
  2
TABLES
  0
TABLE
  2
VPORT
  5
8
330
0
100
AcDbSymbolTable
 70
     4
  0
VPORT
  5
2E
330
8
100
AcDbSymbolTableRecord
100
AcDbViewportTableRecord
  2
*ACTIVE
 70
     0
 10
0.0
 20
0.0
 11
1.0
 21
1.0
 12
210.0
 22
148.5
 13
0.0
 23
0.0
 14
10.0
 24
10.0
 15
10.0
 25
10.0
 16
0.0
 26
0.0
 36
1.0
 17
0.0
 27
0.0
 37
0.0
 40
341.0
 41
1.24
 42
50.0
 43
0.0
 44
0.0
 50
0.0
 51
0.0
 71
     0
 72
   100
 73
     1
 74
     3
 75
     0
 76
     0
 77
     0
 78
     0
  0
ENDTAB
  0
TABLE
  2
LTYPE
  5
5
330
0
100
AcDbSymbolTable
 70
     1
  0
LTYPE
  5
14
330
5
100
AcDbSymbolTableRecord
100
AcDbLinetypeTableRecord
  2
BYBLOCK
 70
     0
  3

 72
    65
 73
     0
 40
0.0
  0
LTYPE
  5
15
330
5
100
AcDbSymbolTableRecord
100
AcDbLinetypeTableRecord
  2
BYLAYER
 70
     0
  3

 72
    65
 73
     0
 40
0.0
  0
LTYPE
  5
16
330
5
100
AcDbSymbolTableRecord
100
AcDbLinetypeTableRecord
  2
CONTINUOUS
 70
     0
  3
Solid line
 72
    65
 73
     0
 40
0.0
  0
ENDTAB
  0
TABLE
  2
LAYER
  5
2
100
AcDbSymbolTable
 70
2
  0
LAYER
  5
50
100
AcDbSymbolTableRecord
100
AcDbLayerTableRecord
  2
0
 70
0
  6
CONTINUOUS
  0
LAYER
  5
51
100
AcDbSymbolTableRecord
100
AcDbLayerTableRecord
  2
Layer_1
 70
0
  6
CONTINUOUS
  0
ENDTAB
  0
TABLE
  2
STYLE
  5
3
330
0
100
AcDbSymbolTable
 70
     1
  0
STYLE
  5
11
330
3
100
AcDbSymbolTableRecord
100
AcDbTextStyleTableRecord
  2
STANDARD
 70
     0
 40
0.0
 41
1.0
 50
0.0
 71
     0
 42
2.5
  3
txt
  4

  0
ENDTAB
  0
TABLE
  2
VIEW
  5
6
330
0
100
AcDbSymbolTable
 70
     0
  0
ENDTAB
  0
TABLE
  2
UCS
  5
7
330
0
100
AcDbSymbolTable
 70
     0
  0
ENDTAB
  0
TABLE
  2
APPID
  5
9
330
0
100
AcDbSymbolTable
 70
     2
  0
APPID
  5
12
330
9
100
AcDbSymbolTableRecord
100
AcDbRegAppTableRecord
  2
ACAD
 70
     0
  0
ENDTAB
  0
TABLE
  2
DIMSTYLE
  5
A
330
0
100
AcDbSymbolTable
 70
     1
  0
DIMSTYLE
105
27
330
A
100
AcDbSymbolTableRecord
100
AcDbDimStyleTableRecord
  2
ISO-25
 70
     0
  3

  4

  5

  6

  7

 40
1.0
 41
2.5
 42
0.625
 43
3.75
 44
1.25
 45
0.0
 46
0.0
 47
0.0
 48
0.0
140
2.5
141
2.5
142
0.0
143
0.03937007874016
144
1.0
145
0.0
146
1.0
147
0.625
 71
     0
 72
     0
 73
     0
 74
     0
 75
     0
 76
     0
 77
     1
 78
     8
170
     0
171
     3
172
     1
173
     0
174
     0
175
     0
176
     0
177
     0
178
     0
270
     2
271
     2
272
     2
273
     2
274
     3
340
11
275
     0
280
     0
281
     0
282
     0
283
     0
284
     8
285
     0
286
     0
287
     3
288
     0
  0
ENDTAB
  0
TABLE
  2
BLOCK_RECORD
  5
1
330
0
100
AcDbSymbolTable
 70
     1
  0
BLOCK_RECORD
  5
1F
330
1
100
AcDbSymbolTableRecord
100
AcDbBlockTableRecord
  2
*MODEL_SPACE
  0
BLOCK_RECORD
  5
1B
330
1
100
AcDbSymbolTableRecord
100
AcDbBlockTableRecord
  2
*PAPER_SPACE
  0
ENDTAB
  0
ENDSEC
  0
SECTION
  2
BLOCKS
  0
BLOCK
  5
20
330
1F
100
AcDbEntity
  8
0
100
AcDbBlockBegin
  2
*MODEL_SPACE
 70
     0
 10
0.0
 20
0.0
 30
0.0
  3
*MODEL_SPACE
  1

  0
ENDBLK
  5
21
330
1F
100
AcDbEntity
  8
0
100
AcDbBlockEnd
  0
BLOCK
  5
1C
330
1B
100
AcDbEntity
 67
     1
  8
0
100
AcDbBlockBegin
  2
*PAPER_SPACE
  1

  0
ENDBLK
  5
1D
330
1B
100
AcDbEntity
 67
     1
  8
0
100
AcDbBlockEnd
  0
ENDSEC
  0
SECTION
  2
ENTITIES
  0
SPLINE
  5
100
100
AcDbEntity
  8
Layer_1
 62
7
100
AcDbSpline
 70
0
 71
3
 72
10
 73
6
 74
4
 40
0.000000
 40
0.000000
 40
0.000000
 40
0.000000
 40
0.440578
 40
0.904822
 40
1.341892
 40
1.341892
 40
1.341892
 40
1.341892
 10
3.926522
 20
4.001034
 30
0.0
 10
3.826449
 20
3.893555
 30
0.0
 10
3.620927
 20
3.672826
 30
0.0
 10
3.317021
 20
3.344516
 30
0.0
 10
3.103528
 20
3.133081
 30
0.0
 10
3.000000
 20
3.030550
 30
0.0
 11
3.926522
 21
4.001034
 31
0.0
 11
3.626445
 21
3.678446
 31
0.0
 11
3.308382
 21
3.340277
 31
0.0
 11
3.000000
 21
3.030550
 31
0.0
  0
SPLINE
  5
101
100
AcDbEntity
  8
Layer_1
 62
7
100
AcDbSpline
 70
0
 71
3
 72
10
 73
6
 74
4
 40
0.000000
 40
0.000000
 40
0.000000
 40
0.000000
 40
0.076240
 40
0.156472
 40
0.194285
 40
0.194285
 40
0.194285
 40
0.194285
 10
3.000000
 20
3.030550
 30
0.0
 10
2.976336
 20
3.020741
 30
0.0
 10
2.927769
 20
3.000610
 30
0.0
 10
2.862014
 20
2.998904
 30
0.0
 10
2.822744
 20
2.999734
 30
0.0
 10
2.810164
 20
3.000000
 30
0.0
 11
3.000000
 21
3.030550
 31
0.0
 11
2.927966
 21
3.005577
 31
0.0
 11
2.847972
 21
2.999394
 31
0.0
 11
2.810164
 21
3.000000
 31
0.0
  0
SPLINE
  5
102
100
AcDbEntity
  8
Layer_1
 62
7
100
AcDbSpline
 70
0
 71
3
 72
10
 73
6
 74
4
 40
0.000000
 40
0.000000
 40
0.000000
 40
0.000000
 40
0.037813
 40
0.118045
 40
0.194285
 40
0.194285
 40
0.194285
 40
0.194285
 10
1.189836
 20
3.000000
 30
0.0
 10
1.177256
 20
2.999734
 30
0.0
 10
1.137986
 20
2.998904
 30
0.0
 10
1.072231
 20
3.000609
 30
0.0
 10
1.023664
 20
3.020741
 30
0.0
 10
1.000000
 20
3.030550
 30
0.0
 11
1.189836
 21
3.000000
 31
0.0
 11
1.152028
 21
2.999394
 31
0.0
 11
1.072034
 21
3.005576
 31
0.0
 11
1.000000
 21
3.030550
 31
0.0
  0
LWPOLYLINE
  5
103
100
AcDbEntity
  8
Layer_1
 62
7
100
AcDbPolyline
 90
3
 70
0
 10
2.810164
 20
3.000000
 30
0.0
 10
2.000000
 20
3.000000
 30
0.0
 10
1.189836
 20
3.000000
 30
0.0
  0
SPLINE
  5
104
100
AcDbEntity
  8
Layer_1
 62
7
100
AcDbSpline
 70
0
 71
3
 72
10
 73
6
 74
4
 40
0.000000
 40
0.000000
 40
0.000000
 40
0.000000
 40
0.437070
 40
0.901314
 40
1.341892
 40
1.341892
 40
1.341892
 40
1.341892
 10
1.000000
 20
3.030550
 30
0.0
 10
0.896472
 20
3.133080
 30
0.0
 10
0.682978
 20
3.344516
 30
0.0
 10
0.379073
 20
3.672826
 30
0.0
 10
0.173551
 20
3.893556
 30
0.0
 10
0.073478
 20
4.001034
 30
0.0
 11
1.000000
 21
3.030550
 31
0.0
 11
0.691618
 21
3.340277
 31
0.0
 11
0.373555
 21
3.678446
 31
0.0
 11
0.073478
 21
4.001034
 31
0.0
  0
SPLINE
  5
105
100
AcDbEntity
  8
Layer_1
 62
7
100
AcDbSpline
 70
0
 71
3
 72
10
 73
6
 74
4
 40
0.000000
 40
0.000000
 40
0.000000
 40
0.000000
 40
0.440578
 40
0.904822
 40
1.341892
 40
1.341892
 40
1.341892
 40
1.341892
 10
-0.001034
 20
3.926522
 30
0.0
 10
0.106444
 20
3.826449
 30
0.0
 10
0.327174
 20
3.620927
 30
0.0
 10
0.655484
 20
3.317021
 30
0.0
 10
0.866919
 20
3.103528
 30
0.0
 10
0.969450
 20
3.000000
 30
0.0
 11
-0.001034
 21
3.926522
 31
0.0
 11
0.321554
 21
3.626445
 31
0.0
 11
0.659723
 21
3.308382
 31
0.0
 11
0.969450
 21
3.000000
 31
0.0
  0
LWPOLYLINE
  5
106
100
AcDbEntity
  8
Layer_1
 62
7
100
AcDbPolyline
 90
3
 70
0
 10
0.073478
 20
4.001034
 30
0.0
 10
0.000000
 20
4.000000
 30
0.0
 10
-0.001034
 20
3.926522
 30
0.0
  0
SPLINE
  5
107
100
AcDbEntity
  8
Layer_1
 62
7
100
AcDbSpline
 70
0
 71
3
 72
10
 73
6
 74
4
 40
0.000000
 40
0.000000
 40
0.000000
 40
0.000000
 40
0.076240
 40
0.156472
 40
0.194285
 40
0.194285
 40
0.194285
 40
0.194285
 10
0.969450
 20
3.000000
 30
0.0
 10
0.979259
 20
2.976336
 30
0.0
 10
0.999390
 20
2.927769
 30
0.0
 10
1.001096
 20
2.862014
 30
0.0
 10
1.000266
 20
2.822744
 30
0.0
 10
1.000000
 20
2.810164
 30
0.0
 11
0.969450
 21
3.000000
 31
0.0
 11
0.994423
 21
2.927966
 31
0.0
 11
1.000606
 21
2.847972
 31
0.0
 11
1.000000
 21
2.810164
 31
0.0
  0
SPLINE
  5
108
100
AcDbEntity
  8
Layer_1
 62
7
100
AcDbSpline
 70
0
 71
3
 72
10
 73
6
 74
4
 40
0.000000
 40
0.000000
 40
0.000000
 40
0.000000
 40
0.037813
 40
0.118045
 40
0.194285
 40
0.194285
 40
0.194285
 40
0.194285
 10
1.000000
 20
1.189836
 30
0.0
 10
1.000266
 20
1.177256
 30
0.0
 10
1.001096
 20
1.137986
 30
0.0
 10
0.999391
 20
1.072231
 30
0.0
 10
0.979259
 20
1.023664
 30
0.0
 10
0.969450
 20
1.000000
 30
0.0
 11
1.000000
 21
1.189836
 31
0.0
 11
1.000606
 21
1.152028
 31
0.0
 11
0.994424
 21
1.072034
 31
0.0
 11
0.969450
 21
1.000000
 31
0.0
  0
LWPOLYLINE
  5
109
100
AcDbEntity
  8
Layer_1
 62
7
100
AcDbPolyline
 90
3
 70
0
 10
1.000000
 20
2.810164
 30
0.0
 10
1.000000
 20
2.000000
 30
0.0
 10
1.000000
 20
1.189836
 30
0.0
  0
SPLINE
  5
10a
100
AcDbEntity
  8
Layer_1
 62
7
100
AcDbSpline
 70
0
 71
3
 72
10
 73
6
 74
4
 40
0.000000
 40
0.000000
 40
0.000000
 40
0.000000
 40
0.437070
 40
0.901314
 40
1.341892
 40
1.341892
 40
1.341892
 40
1.341892
 10
0.969450
 20
1.000000
 30
0.0
 10
0.866920
 20
0.896472
 30
0.0
 10
0.655484
 20
0.682978
 30
0.0
 10
0.327174
 20
0.379073
 30
0.0
 10
0.106444
 20
0.173551
 30
0.0
 10
-0.001034
 20
0.073478
 30
0.0
 11
0.969450
 21
1.000000
 31
0.0
 11
0.659723
 21
0.691618
 31
0.0
 11
0.321554
 21
0.373555
 31
0.0
 11
-0.001034
 21
0.073478
 31
0.0
  0
SPLINE
  5
10b
100
AcDbEntity
  8
Layer_1
 62
7
100
AcDbSpline
 70
0
 71
3
 72
10
 73
6
 74
4
 40
0.000000
 40
0.000000
 40
0.000000
 40
0.000000
 40
0.440577
 40
0.904820
 40
1.341890
 40
1.341890
 40
1.341890
 40
1.341890
 10
0.073478
 20
-0.001031
 30
0.0
 10
0.173551
 20
0.106447
 30
0.0
 10
0.379073
 20
0.327175
 30
0.0
 10
0.682979
 20
0.655484
 30
0.0
 10
0.896472
 20
0.866919
 30
0.0
 10
1.000000
 20
0.969450
 30
0.0
 11
0.073478
 21
-0.001031
 31
0.0
 11
0.373555
 21
0.321555
 31
0.0
 11
0.691618
 21
0.659723
 31
0.0
 11
1.000000
 21
0.969450
 31
0.0
  0
LWPOLYLINE
  5
10c
100
AcDbEntity
  8
Layer_1
 62
7
100
AcDbPolyline
 90
3
 70
0
 10
-0.001034
 20
0.073478
 30
0.0
 10
0.000258
 20
0.000259
 30
0.0
 10
0.073478
 20
-0.001031
 30
0.0
  0
SPLINE
  5
10d
100
AcDbEntity
  8
Layer_1
 62
7
100
AcDbSpline
 70
0
 71
3
 72
10
 73
6
 74
4
 40
0.000000
 40
0.000000
 40
0.000000
 40
0.000000
 40
0.076240
 40
0.156472
 40
0.194285
 40
0.194285
 40
0.194285
 40
0.194285
 10
1.000000
 20
0.969450
 30
0.0
 10
1.023664
 20
0.979259
 30
0.0
 10
1.072231
 20
0.999390
 30
0.0
 10
1.137986
 20
1.001096
 30
0.0
 10
1.177256
 20
1.000266
 30
0.0
 10
1.189836
 20
1.000000
 30
0.0
 11
1.000000
 21
0.969450
 31
0.0
 11
1.072034
 21
0.994423
 31
0.0
 11
1.152028
 21
1.000606
 31
0.0
 11
1.189836
 21
1.000000
 31
0.0
  0
SPLINE
  5
10e
100
AcDbEntity
  8
Layer_1
 62
7
100
AcDbSpline
 70
0
 71
3
 72
10
 73
6
 74
4
 40
0.000000
 40
0.000000
 40
0.000000
 40
0.000000
 40
0.037813
 40
0.118045
 40
0.194285
 40
0.194285
 40
0.194285
 40
0.194285
 10
2.810164
 20
1.000000
 30
0.0
 10
2.822744
 20
1.000266
 30
0.0
 10
2.862014
 20
1.001096
 30
0.0
 10
2.927769
 20
0.999390
 30
0.0
 10
2.976336
 20
0.979259
 30
0.0
 10
3.000000
 20
0.969450
 30
0.0
 11
2.810164
 21
1.000000
 31
0.0
 11
2.847972
 21
1.000606
 31
0.0
 11
2.927966
 21
0.994424
 31
0.0
 11
3.000000
 21
0.969450
 31
0.0
  0
LWPOLYLINE
  5
10f
100
AcDbEntity
  8
Layer_1
 62
7
100
AcDbPolyline
 90
3
 70
0
 10
1.189836
 20
1.000000
 30
0.0
 10
2.000000
 20
1.000000
 30
0.0
 10
2.810164
 20
1.000000
 30
0.0
  0
SPLINE
  5
110
100
AcDbEntity
  8
Layer_1
 62
7
100
AcDbSpline
 70
0
 71
3
 72
10
 73
6
 74
4
 40
0.000000
 40
0.000000
 40
0.000000
 40
0.000000
 40
0.437070
 40
0.901314
 40
1.341892
 40
1.341892
 40
1.341892
 40
1.341892
 10
3.000000
 20
0.969450
 30
0.0
 10
3.103528
 20
0.866919
 30
0.0
 10
3.317021
 20
0.655484
 30
0.0
 10
3.620927
 20
0.327174
 30
0.0
 10
3.826449
 20
0.106444
 30
0.0
 10
3.926522
 20
-0.001034
 30
0.0
 11
3.000000
 21
0.969450
 31
0.0
 11
3.308382
 21
0.659723
 31
0.0
 11
3.626445
 21
0.321554
 31
0.0
 11
3.926522
 21
-0.001034
 31
0.0
  0
SPLINE
  5
111
100
AcDbEntity
  8
Layer_1
 62
7
100
AcDbSpline
 70
0
 71
3
 72
10
 73
6
 74
4
 40
0.000000
 40
0.000000
 40
0.000000
 40
0.000000
 40
0.440578
 40
0.904822
 40
1.341892
 40
1.341892
 40
1.341892
 40
1.341892
 10
4.001030
 20
0.073474
 30
0.0
 10
3.893553
 20
0.173548
 30
0.0
 10
3.672825
 20
0.379072
 30
0.0
 10
3.344516
 20
0.682978
 30
0.0
 10
3.133081
 20
0.896472
 30
0.0
 10
3.030550
 20
1.000000
 30
0.0
 11
4.001030
 21
0.073474
 31
0.0
 11
3.678445
 21
0.373554
 31
0.0
 11
3.340277
 21
0.691618
 31
0.0
 11
3.030550
 21
1.000000
 31
0.0
  0
LWPOLYLINE
  5
112
100
AcDbEntity
  8
Layer_1
 62
7
100
AcDbPolyline
 90
3
 70
0
 10
3.926522
 20
-0.001034
 30
0.0
 10
4.000000
 20
-0.000004
 30
0.0
 10
4.001030
 20
0.073474
 30
0.0
  0
SPLINE
  5
113
100
AcDbEntity
  8
Layer_1
 62
7
100
AcDbSpline
 70
0
 71
3
 72
10
 73
6
 74
4
 40
0.000000
 40
0.000000
 40
0.000000
 40
0.000000
 40
0.076240
 40
0.156472
 40
0.194285
 40
0.194285
 40
0.194285
 40
0.194285
 10
3.030550
 20
1.000000
 30
0.0
 10
3.020741
 20
1.023664
 30
0.0
 10
3.000610
 20
1.072231
 30
0.0
 10
2.998904
 20
1.137986
 30
0.0
 10
2.999734
 20
1.177256
 30
0.0
 10
3.000000
 20
1.189836
 30
0.0
 11
3.030550
 21
1.000000
 31
0.0
 11
3.005577
 21
1.072034
 31
0.0
 11
2.999394
 21
1.152028
 31
0.0
 11
3.000000
 21
1.189836
 31
0.0
  0
SPLINE
  5
114
100
AcDbEntity
  8
Layer_1
 62
7
100
AcDbSpline
 70
0
 71
3
 72
10
 73
6
 74
4
 40
0.000000
 40
0.000000
 40
0.000000
 40
0.000000
 40
0.037813
 40
0.118045
 40
0.194286
 40
0.194286
 40
0.194286
 40
0.194286
 10
3.000000
 20
2.810164
 30
0.0
 10
2.999734
 20
2.822744
 30
0.0
 10
2.998904
 20
2.862014
 30
0.0
 10
3.000610
 20
2.927770
 30
0.0
 10
3.020741
 20
2.976336
 30
0.0
 10
3.030550
 20
3.000000
 30
0.0
 11
3.000000
 21
2.810164
 31
0.0
 11
2.999394
 21
2.847972
 31
0.0
 11
3.005576
 21
2.927966
 31
0.0
 11
3.030550
 21
3.000000
 31
0.0
  0
LWPOLYLINE
  5
115
100
AcDbEntity
  8
Layer_1
 62
7
100
AcDbPolyline
 90
3
 70
0
 10
3.000000
 20
1.189836
 30
0.0
 10
3.000000
 20
2.000000
 30
0.0
 10
3.000000
 20
2.810164
 30
0.0
  0
SPLINE
  5
116
100
AcDbEntity
  8
Layer_1
 62
7
100
AcDbSpline
 70
0
 71
3
 72
10
 73
6
 74
4
 40
0.000000
 40
0.000000
 40
0.000000
 40
0.000000
 40
0.437070
 40
0.901314
 40
1.341892
 40
1.341892
 40
1.341892
 40
1.341892
 10
3.030550
 20
3.000000
 30
0.0
 10
3.133081
 20
3.103529
 30
0.0
 10
3.344516
 20
3.317022
 30
0.0
 10
3.672826
 20
3.620927
 30
0.0
 10
3.893555
 20
3.826449
 30
0.0
 10
4.001034
 20
3.926522
 30
0.0
 11
3.030550
 21
3.000000
 31
0.0
 11
3.340277
 21
3.308382
 31
0.0
 11
3.678446
 21
3.626445
 31
0.0
 11
4.001034
 21
3.926522
 31
0.0
  0
LWPOLYLINE
  5
117
100
AcDbEntity
  8
Layer_1
 62
7
100
AcDbPolyline
 90
3
 70
0
 10
4.001034
 20
3.926522
 30
0.0
 10
4.000000
 20
4.000000
 30
0.0
 10
3.926522
 20
4.001034
 30
0.0
  0
ENDSEC
  0
SECTION
  2
OBJECTS
  0
DICTIONARY
  5
C
330
0
100
AcDbDictionary
  3
ACAD_GROUP
350
D
  3
ACAD_MLINESTYLE
350
17
  0
DICTIONARY
  5
D
330
C
100
AcDbDictionary
  0
DICTIONARY
  5
1A
330
C
100
AcDbDictionary
  0
DICTIONARY
  5
17
330
C
100
AcDbDictionary
  3
STANDARD
350
18
  0
DICTIONARY
  5
19
330
C
100
AcDbDictionary
  0
ENDSEC
  0
EOF
